<svg id="Image" height="512" viewBox="0 0 64 64" width="512" xmlns="http://www.w3.org/2000/svg"><g><path d="m57.162 22.454c-.456.7-11.162 17.275-11.162 28.831 0 5.158 2.668 5.715 3.815 5.715 1.814 0 2.898-1.255 2.898-3.357 0-2.601-1.572-1.959-1.572-5.5 0-10.657 7.654-24.517 7.731-24.656.622-1.114-1.008-2.106-1.71-1.033zm-7.347 32.546c-1.5 0-1.815-2.02-1.815-3.715 0-2.829.715-6.034 1.776-9.236-.396 2.056-.635 4.117-.635 6.093 0 2.532.649 3.496 1.124 4.2.299.443.448.666.448 1.3.001 1.358-.54 1.358-.898 1.358z"/><path d="m15.815 57c1.815 0 2.898-1.255 2.898-3.357 0-1.246-.419-1.868-.79-2.418-.385-.571-.783-1.161-.783-3.082 0-10.657 7.654-24.517 7.732-24.656.623-1.119-1.016-2.104-1.711-1.033-.455.7-11.161 17.275-11.161 28.831 0 5.158 2.668 5.715 3.815 5.715zm-.038-14.951c-.396 2.056-.635 4.117-.635 6.093 0 2.532.649 3.496 1.124 4.2.298.443.448.666.448 1.3 0 1.358-.541 1.358-.899 1.358-1.5 0-1.815-2.02-1.815-3.715 0-2.828.715-6.034 1.777-9.236z"/><path d="m60 47c-2.276 0-4.128-1.573-5.987-.778-1.18.527-1.808 1.825-1.489 3.099.114.433.277.698.448.955.391.595.981 1.495.981 3.125 0 3.395-2.168 4.6-4.024 4.6-3.961 0-5.365-4.336-4.816-8.314.226-1.631.065-2.701-1.578-3.465-.509-.226-.923-.252-1.479-.187-3.28.381-3.937-.376-5.259.187-1.18.527-1.809 1.824-1.49 3.102.329 1.228 1.43 1.676 1.43 4.077 0 3.395-2.167 4.6-4.023 4.6-3.962 0-5.37-4.338-4.817-8.315.113-.817.23-1.662-.3-2.464-.599-.862-1.627-1.36-3.07-1.148-2.851.364-3.597-.427-4.946.15-1.179.527-1.807 1.824-1.489 3.102.116.432.271.686.448.952.391.595.981 1.495.981 3.125 0 3.395-2.168 4.6-4.024 4.6-1.157 0-4.933-.505-4.933-7 0-.478.058-.903.115-1.313.157-1.145.352-2.568-1.576-3.465-.332-.15-.648-.225-.942-.225-.965 0-1.838.315-2.608.593-.579.21-1.127.407-1.553.407-1.322 0-1.324 2 0 2 .776 0 1.516-.267 2.232-.525.412-.149 1.641-.61 2.04-.433.553.257.575.267.423 1.373-.06.432-.133.971-.133 1.585 0 8.748 6.223 9 6.933 9 2.901 0 6.024-2.065 6.024-6.6 0-2.228-.852-3.525-1.318-4.236-.573-.86.222-1.07.322-1.164.805.002 1.902.355 4.273.054 1.405-.207 1.231.546 1.119 1.356-.061.434-.135.973-.135 1.59 0 8.748 6.224 9 6.934 9 2.901 0 6.023-2.065 6.023-6.6 0-2.225-.85-3.522-1.319-4.239-.361-.536-.27-1.251.806-1.132 2.738.31 4.169-.127 4.483.013.572.265.574.309.426 1.371-.06.433-.134.972-.134 1.587 0 8.748 6.222 9 6.932 9 2.901 0 6.024-2.065 6.024-6.6 0-2.228-.852-3.525-1.318-4.236-.572-.861.222-1.071.322-1.164 1.46.004 2.666 1 5.043 1 1.322 0 1.321-2-.002-2z"/><path d="m27.923 30.997 2.159.166c-.704 2.635-1.082 5.038-1.082 7.126 0 5.154 2.672 5.711 3.82 5.711 1.81 0 2.89-1.256 2.89-3.36 0-1.244-.419-1.866-.788-2.415-.385-.571-.782-1.162-.782-3.085 0-1.128.111-2.361.283-3.643l6.5.5c.311.023.602-.097.803-.31l18-19c.912-.962-.545-2.335-1.451-1.375l-17.673 18.654-11.602-.892c0-.101 0-1.261 0-1.161l10.091-.917c.278-.025.533-.166.703-.388l16.084-21c.805-1.051-.782-2.264-1.588-1.216l-15.817 20.652-2.718.247c.047-.16.304-1.037.364-1.23l2.161-.524c.205-.05.458-.211.594-.414 15.897-23.692 10.571-15.755 11.786-17.566.738-1.101-.925-2.212-1.66-1.114-1.188 1.771 4.285-6.387-11.57 17.243l-.569.138c1.904-5.407 4.242-9.911 4.968-11.258.001-.002.001-.003.002-.005.73-1.304-1.176-2.212-1.749-.97-.388.6-3.983 6.242-7.007 13.151l-2.055.498-3.256.789c-.448.108-.764.51-.764.971v5c0 .522.402.957.923.997zm5.34 8.345c.298.442.447.664.447 1.297 0 1.36-.535 1.36-.89 1.36-1.504.001-1.82-2.017-1.82-3.71 0-2.009.386-4.359 1.11-6.97l.317.024c-.174 1.328-.288 2.613-.288 3.796.001 2.535.65 3.499 1.124 4.203zm-1.141-14.312c-.082.204-.16.408-.239.613l-2.883.262v-.118c.311-.076 3.305-.802 3.122-.757z"/><path d="m31 46v6.197l-.168-.252c-.307-.459-.928-.585-1.387-.277-.459.306-.583.927-.277 1.387l2 3c.395.593 1.269.593 1.664 0l2-3c.734-1.1-.931-2.212-1.664-1.109l-.168.251v-6.197c0-1.322-2-1.324-2 0z"/></g></svg>