<svg id="Слой_1" enable-background="new 0 0 300 300" height="512" viewBox="0 0 300 300" width="512" xmlns="http://www.w3.org/2000/svg"><g fill="rgb(0,0,0)"><path d="m215.682 190.739c-.045.004-.08.031-.124.038-.248-.241-.535-.444-.887-.555-8.31-2.59-16.038-4.19-23.12-5.075l-23.778-23.888 2.715-2.656c.434-.424.68-1.005.683-1.611.003-.608-.236-1.192-.666-1.62l-11.033-11.032c1.129-1.248 1.772-2.834 1.775-4.528.004-1.817-.699-3.528-1.98-4.813l-31.115-31.258c-.054-.068-.078-.149-.14-.212-.063-.063-.145-.088-.212-.142l-23.182-23.289c-.002-.002-.003-.004-.005-.007-.002-.002-.005-.003-.007-.004l-16.28-16.356c-.003-.003-.004-.008-.007-.011s-.008-.004-.011-.008l-7.89-7.926 2.81-2.79c.891-.885.895-2.323.011-3.215-.884-.89-2.324-.894-3.213-.011l-4.415 4.385c-.004.004-.009.005-.013.009s-.005.009-.009.013l-3.319 3.296-33.449-33.675 4.942-4.914c.89-.885.894-2.323.009-3.213-.884-.89-2.324-.896-3.213-.009l-14.811 14.728c-.004.004-.01.005-.014.009s-.005.009-.009.013l-6.54 6.504c-.89.885-.894 2.323-.009 3.213.444.446 1.027.67 1.611.67.579 0 1.159-.22 1.602-.661l4.939-4.911 33.442 33.666-3.325 3.302c-.002.003-.006.003-.008.006s-.003.006-.005.008l-4.82 4.788c-.891.885-.895 2.323-.011 3.215.444.446 1.029.67 1.612.67.579 0 1.158-.22 1.601-.659l3.22-3.198 78.853 79.218c1.327 1.334 3.074 2.002 4.822 2.002 1.735 0 3.471-.659 4.794-1.975l.223-.221 10.958 10.959c.443.444 1.025.666 1.607.666.574 0 1.147-.215 1.589-.648l2.646-2.588 19.949 20.04c-24.9-1.603-40.34 5.522-42.869 6.792-.068-.014-.133-.033-.203-.041-.002 0-.003-.002-.006-.002-.017-.003-.092-.017-.126-.024-.04-.002-.073-.023-.113-.023-.002 0-.004 0-.006 0-2.275-.431-21.575-3.61-39.224 8.053-13.029 8.61-21.682 23.047-25.716 42.907-2.189 10.78-3.542 24.487-4.02 40.739-.037 1.254.95 2.301 2.205 2.339h.068c1.224 0 2.233-.974 2.27-2.206.47-15.995 1.793-29.44 3.931-39.967 10.402-51.198 49.48-48.82 58.166-47.636-.393 8.528-3.636 43.011-30.217 58.141-4.531 2.579-8.548 5.876-11.937 9.804-4.593 5.321-7.9 11.918-9.562 19.081-.284 1.22.477 2.443 1.7 2.725.173.042.345.06.516.06 1.033 0 1.967-.708 2.211-1.76 1.496-6.446 4.461-12.371 8.574-17.138 3.05-3.533 6.666-6.502 10.746-8.823 29.05-16.532 32.198-52.988 32.528-62.04.002-.001.003-.001.005-.002.215-.113 17.553-9.031 46.119-5.917l15.105 15.175c.444.446 1.026.67 1.61.67.58 0 1.159-.22 1.603-.661.889-.885.892-2.326.007-3.213l-10.863-10.913c4.856.845 9.983 2.043 15.362 3.676.108 6.447 2.032 45.851 32.562 63.225 4.08 2.321 7.696 5.29 10.746 8.823 4.113 4.764 7.078 10.689 8.573 17.133.244 1.05 1.178 1.757 2.211 1.757.171 0 .343-.018.516-.06 1.223-.282 1.984-1.505 1.7-2.727-1.662-7.159-4.967-13.754-9.561-19.073-3.39-3.928-7.406-7.225-11.937-9.804-26.786-15.244-29.87-50.234-30.223-58.355 11.704-.903 46.306.618 55.9 47.85 2.139 10.527 3.462 23.974 3.932 39.971.037 1.232 1.046 2.206 2.27 2.206h.068c1.255-.038 2.241-1.085 2.205-2.339-.478-16.254-1.831-29.963-4.021-40.743-10.581-52.076-49.816-52.52-61.598-51.399zm-185.131-158.717 5.047-5.018 33.446 33.671-5.049 5.015zm113.748 121.022c-.882.879-2.314.872-3.192-.007l-78.85-79.214 14.937-14.836 6.297 6.326-7.179 7.134c-.89.883-.894 2.323-.01 3.213.445.446 1.029.67 1.612.67.579 0 1.158-.22 1.602-.661l7.18-7.135 4.717 4.739-3.74 3.719c-.89.885-.894 2.323-.009 3.213.444.446 1.027.67 1.611.67.579 0 1.159-.22 1.602-.661l3.742-3.72 5.168 5.191-7.18 7.134c-.89.883-.894 2.323-.01 3.213.445.446 1.029.67 1.612.67.579 0 1.158-.22 1.602-.661l7.181-7.136 4.29 4.31-3.703 3.682c-.89.885-.894 2.323-.009 3.213.444.446 1.027.67 1.611.67.579 0 1.159-.22 1.602-.661l3.705-3.684 4.464 4.484-8.321 8.269c-.89.883-.894 2.323-.01 3.213.445.446 1.029.67 1.612.67.579 0 1.158-.22 1.602-.661l8.323-8.27 4.994 5.017-3.666 3.646c-.89.885-.894 2.323-.009 3.213.444.446 1.027.67 1.611.67.579 0 1.159-.22 1.602-.661l3.668-3.647 4.463 4.484-8.284 8.232c-.89.883-.894 2.323-.01 3.213.445.446 1.029.67 1.612.67.579 0 1.158-.22 1.602-.661l8.286-8.234 6.131 6.159-4.766 4.739c-.89.885-.894 2.323-.009 3.213.444.446 1.027.67 1.611.67.579 0 1.159-.22 1.602-.661l4.768-4.741 4.459 4.48-9.38 9.33c-.89.885-.894 2.323-.009 3.213.444.446 1.027.67 1.611.67.579 0 1.159-.22 1.602-.661l9.381-9.332 5.019 5.042c.425.426.658.992.657 1.595-.002.601-.239 1.169-.663 1.591zm16.009 9.16-9.357-9.358 5.321-5.28 9.396 9.394z"/><path d="m190.379 196.606c-1.255 0-2.272 1.016-2.272 2.272v9.089c0 1.256 1.017 2.272 2.272 2.272s2.272-1.016 2.272-2.272v-9.089c.001-1.256-1.017-2.272-2.272-2.272z"/><path d="m176.975 196.606c-1.255 0-2.272 1.016-2.272 2.272v9.089c0 1.256 1.017 2.272 2.272 2.272s2.272-1.016 2.272-2.272v-9.089c.001-1.256-1.017-2.272-2.272-2.272z"/><path d="m163.342 196.606c-1.255 0-2.272 1.016-2.272 2.272v9.089c0 1.256 1.017 2.272 2.272 2.272s2.272-1.016 2.272-2.272v-9.089c0-1.256-1.017-2.272-2.272-2.272z"/><path d="m149.708 196.606c-1.255 0-2.272 1.016-2.272 2.272v9.089c0 1.256 1.017 2.272 2.272 2.272s2.272-1.016 2.272-2.272v-9.089c0-1.256-1.017-2.272-2.272-2.272z"/><path d="m197.196 214.784c-1.255 0-2.272 1.016-2.272 2.272v9.089c0 1.256 1.017 2.272 2.272 2.272s2.272-1.016 2.272-2.272v-9.089c.001-1.256-1.017-2.272-2.272-2.272z"/><path d="m183.563 214.784c-1.255 0-2.272 1.016-2.272 2.272v9.089c0 1.256 1.017 2.272 2.272 2.272s2.272-1.016 2.272-2.272v-9.089c0-1.256-1.018-2.272-2.272-2.272z"/><path d="m169.929 214.784c-1.255 0-2.272 1.016-2.272 2.272v9.089c0 1.256 1.017 2.272 2.272 2.272s2.272-1.016 2.272-2.272v-9.089c0-1.256-1.017-2.272-2.272-2.272z"/><path d="m156.295 214.784c-1.255 0-2.272 1.016-2.272 2.272v9.089c0 1.256 1.017 2.272 2.272 2.272s2.272-1.016 2.272-2.272v-9.089c0-1.256-1.017-2.272-2.272-2.272z"/></g></svg>