<svg id="Layer_1" enable-background="new 0 0 512 512" height="512" viewBox="0 0 512 512" width="512" xmlns="http://www.w3.org/2000/svg"><path d="m497.155 82.719-86.736-72.102c-1.427-1.187-3.267-1.759-5.119-1.587-1.85.171-3.556 1.07-4.742 2.5l-24.896 29.998c-.526-.178-1.061-.341-1.601-.49-.046-.013-.092-.025-.138-.037l-24.507-6.224c-.144-.036-.288-.068-.434-.095-20.504-3.848-37.164 7.21-41.457 27.503-.592 2.801-1.232 5.877-1.915 9.159-5.17 24.84-12.939 62.174-20.752 79.573-18.593 22.402-29.934 35.523-33.889 39.2-3.477.396-6.447.69-9.112.955-8.561.847-13.727 1.358-19.695 3.739-13.355 5.328-33.56 20.864-51.386 34.572-5.771 4.437-11.22 8.627-15.643 11.836-12.942 9.39-16.243 27.189-7.517 40.521 5.361 8.192 12.284 11.33 19.496 11.853l-104.991 125.904c-1.19 1.427-1.764 3.269-1.595 5.12s1.067 3.558 2.496 4.746l86.638 72.021c1.262 1.049 2.847 1.617 4.475 1.617.214 0 .43-.01.646-.03 1.85-.171 3.555-1.071 4.741-2.5l26.547-31.992c4.776 4.316 10.878 6.677 17.329 6.677h.018c6.563-.004 12.765-2.452 17.574-6.914.558.705 1.151 1.384 1.78 2.034 4.994 5.16 11.548 8.001 18.458 8.001h.019c13.73-.01 24.993-10.748 25.849-24.26 3.651 1.911 7.726 2.923 11.951 2.923h.016c6.9-.005 13.401-2.71 18.304-7.618 4.904-4.909 7.602-11.413 7.597-18.314l-.009-12.51c3.638 1.893 7.692 2.896 11.895 2.896h.02c6.901-.004 13.401-2.708 18.305-7.617s7.603-11.414 7.597-18.276l.554-116.461 13.161-15.858 2.416 2.072c4.831 4.143 10.772 6.171 16.687 6.171 7.233 0 14.427-3.035 19.494-8.943.077-.09.152-.182.225-.275 4.555-5.891 6.469-12.681 5.855-19.142 6.796-.337 13.448-3.35 18.216-8.91.077-.09.152-.182.225-.276 4.561-5.9 6.474-12.699 5.854-19.167.233-.012.465-.009.699-.027 6.848-.525 13.069-3.67 17.519-8.857.077-.09.151-.182.225-.275 4.515-5.839 6.414-12.665 5.82-19.141 6.808-.328 13.474-3.34 18.251-8.91 9.21-10.739 7.968-26.97-2.771-36.182l-4.429-3.798 37.301-44.946c2.46-2.977 2.052-7.387-.919-9.857zm-177.839-8.523c.68-3.266 1.316-6.327 1.906-9.114.914-4.322 4.889-17.185 19.642-17.185 1.64 0 3.414.159 5.331.507l24.203 6.146c3.957 1.107 7.265 3.704 9.315 7.316 2.062 3.63 2.592 7.823 1.494 11.807-2.281 8.273-10.867 13.147-19.134 10.869l-14.271-3.943c-2.662-.735-5.509.163-7.267 2.295-1.421 1.724-4.483 5.495-8.668 10.644-8.385 10.321-16.136 19.828-23.254 28.526 4.128-16.277 7.812-33.979 10.703-47.868zm-166.095 411.943-75.858-63.061 100.132-120.077-.013 146.254c.001 2.262.293 4.48.857 6.614zm231.116-232.642c-2.006 2.27-4.785 3.646-7.846 3.881-3.117.235-6.132-.738-8.479-2.752l-19.631-16.837c-5.738-4.921-4.718-11.836-1.145-16.571 4.193-4.748 11.468-5.273 16.303-1.147l19.653 16.855.007.007c5.731 4.922 4.71 11.833 1.138 16.564zm24.296-28.328c-4.203 4.758-11.489 5.277-16.327 1.129l-27.51-23.595c-5.739-4.922-4.719-11.838-1.145-16.573 4.202-4.753 11.479-5.272 16.314-1.138.004.003.007.007.011.01l27.511 23.595s.001.001.002.001c0 .001.001.001.002.002 5.735 4.923 4.715 11.836 1.142 16.569zm24.296-28.326c-2.007 2.27-4.786 3.646-7.848 3.881-3.113.241-6.13-.738-8.479-2.753l-27.51-23.595c-5.739-4.922-4.719-11.837-1.146-16.572 4.198-4.751 11.478-5.272 16.312-1.142.002.002.004.003.007.005.003.003.006.005.009.008l27.51 23.595c.012.01.025.019.038.03s.024.024.038.035c5.469 4.557 4.68 11.716 1.069 16.508zm24.41-28.459c-2.014 2.349-4.842 3.773-7.961 4.012-3.126.24-6.131-.738-8.48-2.753l-27.51-23.596c-5.739-4.922-4.72-11.836-1.146-16.571 2.006-2.271 4.786-3.647 7.847-3.882 3.115-.237 6.131.739 8.48 2.753l27.511 23.595c4.797 4.116 5.374 11.645 1.259 16.442zm-7.201-39.981-12.454-10.681c-5.187-4.449-11.817-6.608-18.663-6.085-6.849.524-13.07 3.67-17.519 8.856-.077.09-.151.182-.225.275-4.558 5.895-6.472 12.688-5.856 19.151-6.798.337-13.45 3.344-18.216 8.901-.077.09-.152.182-.225.276-4.556 5.894-6.471 12.686-5.856 19.147-6.796.337-13.447 3.344-18.214 8.903-.077.09-.152.182-.225.276-6.433 8.322-7.608 18.432-3.818 26.877-4.659 1.335-8.991 3.992-12.372 7.934-.077.09-.152.182-.225.276-8.979 11.615-7.719 26.716 2.996 35.905l6.587 5.649-14.907 17.963c-1.035 1.248-1.605 2.816-1.613 4.437l-.565 119.008c.003 3.161-1.24 6.147-3.5 8.41-2.261 2.262-5.247 3.509-8.419 3.511-3.157 0-6.141-1.243-8.401-3.5-2.213-2.209-3.454-5.113-3.51-8.196l-.021-30.82c-.003-3.864-3.136-6.995-7.005-6.995-3.865.003-6.997 3.139-6.995 7.005l.044 66.13c.003 3.161-1.241 6.147-3.501 8.41-2.261 2.263-5.247 3.51-8.416 3.512-3.158 0-6.144-1.243-8.404-3.501-2.195-2.192-3.435-5.067-3.509-8.123l-.04-60.411c-.003-3.864-3.136-6.995-7.005-6.995-3.866.003-6.997 3.139-6.995 7.005l.055 81.439c.005 6.569-5.338 11.917-11.919 11.922-5.263.005-9.921-3.976-11.511-8.864-.681-2.095-.399-4.045-.401-6.191l-.051-75.705c-.003-3.864-3.136-6.995-7.005-6.995-3.865.003-6.998 3.139-6.995 7.005l.051 75.706c.006 3.147-1.281 6.188-3.501 8.41-2.26 2.263-5.247 3.51-8.417 3.512-3.158 0-6.142-1.243-8.403-3.501-2.263-2.26-3.51-5.245-3.512-8.402l.015-165.413c.014-.595-.049-1.198-.193-1.799-.083-.346-.192-.684-.325-1.01-.531-1.305-1.421-2.372-2.523-3.128-.364-.25-.755-.466-1.169-.646-1.524-.664-3.294-.79-4.997-.223-15.945 5.3-19.957 1.625-22.958-2.959-4.63-7.073-2.862-16.527 4.024-21.523 4.58-3.324 10.105-7.572 15.954-12.07 16.258-12.501 36.49-28.06 48.04-32.667 4.129-1.647 8.059-2.037 15.887-2.811 3.176-.314 6.775-.671 11.174-1.192 3.551-.421 5.171-.613 39.182-41.475 17.615-21.165 53.358-65.158 54.881-67.028l9.877 2.729c15.721 4.333 32.022-4.93 36.354-20.644 2.092-7.589 1.092-15.558-2.816-22.44-1.218-2.146-2.672-4.103-4.326-5.843l19.295-23.249 75.971 63.153zm-381.18 159.33c3.866 0 7-3.134 7-7 0-23.511 19.127-42.638 42.638-42.638 3.866 0 7-3.134 7-7s-3.134-7-7-7c-23.511 0-42.638-19.127-42.638-42.639 0-3.866-3.134-7-7-7s-7 3.134-7 7c0 23.511-19.128 42.639-42.639 42.639-3.866 0-7 3.134-7 7s3.134 7 7 7c23.511 0 42.639 19.127 42.639 42.638 0 3.866 3.134 7 7 7zm-22.381-56.638c9.409-5.188 17.194-12.973 22.382-22.382 5.188 9.409 12.973 17.195 22.382 22.382-9.409 5.187-17.194 12.973-22.382 22.382-5.188-9.409-12.973-17.195-22.382-22.382zm-27.257-158.457c23.511 0 42.639 19.127 42.639 42.638 0 3.866 3.134 7 7 7s7-3.134 7-7c0-23.511 19.127-42.638 42.638-42.638 3.866 0 7-3.134 7-7s-3.134-7-7-7c-23.511 0-42.638-19.127-42.638-42.638 0-3.866-3.134-7-7-7s-7 3.134-7 7c0 23.511-19.128 42.638-42.639 42.638-3.866 0-7 3.134-7 7s3.134 7 7 7zm49.638-29.382c5.188 9.409 12.973 17.194 22.382 22.382-9.409 5.188-17.194 12.973-22.382 22.382-5.188-9.409-12.973-17.194-22.382-22.382 9.41-5.187 17.195-12.972 22.382-22.382zm38.268 106.549c0 3.866 3.134 7 7 7 23.511 0 42.639 19.127 42.639 42.638 0 3.866 3.134 7 7 7s7-3.134 7-7c0-23.511 19.127-42.638 42.638-42.638 3.866 0 7-3.134 7-7s-3.134-7-7-7c-23.511 0-42.638-19.127-42.638-42.638 0-3.866-3.134-7-7-7s-7 3.134-7 7c0 23.511-19.128 42.638-42.639 42.638-3.866 0-7 3.134-7 7zm56.639-22.382c5.188 9.409 12.973 17.194 22.382 22.382-9.409 5.188-17.194 12.973-22.382 22.382-5.188-9.409-12.973-17.194-22.382-22.382 9.409-5.188 17.194-12.973 22.382-22.382z"/></svg>