<svg id="Capa_1" enable-background="new 0 0 512 512" height="512" viewBox="0 0 512 512" width="512" xmlns="http://www.w3.org/2000/svg"><g><g><g><path d="m314.49 101.261c.043-49.521-34.995-90.872-81.638-100.567-.488-.095-.965-.192-1.432-.29-52.238 4.596-93.194 48.478-93.148 101.91l.008 34.828h1.46v19.095h-1.454l.012 49.966c.017 64.993 52.708 117.671 117.701 117.671 16.118 0 31.476-3.246 45.464-9.11 1.218 11.882 5.902 22.738 13.025 31.538v-245.041z" fill="#efc984"/><path d="m372.853 156.237v-19.095c.291-.384.582-.765.875-1.142v-33.685c.049-56.493-45.734-102.315-102.226-102.315 0 0-31.496.006-31.574.007-5.194.028-10.295.447-15.278 1.222 1.306.317 2.7.624 4.191.914 46.46 9.657 81.359 50.845 81.317 100.171v237.882c10.587 17.04 29.466 28.391 51.004 28.391 6.94 0 12.566-5.626 12.566-12.566v-199.784z" fill="#e8ae4d"/></g></g><g><path d="m341.498 307.442c-10.21-1.677-19.498-2.978-26.582-3.898-7.873-1.022-13.768-7.72-13.768-15.659v-72.222h-90.295v72.222c0 7.94-5.895 14.637-13.768 15.659-5.291.687-11.812 1.586-19.028 2.697v93.702h163.442v-92.501z" fill="#faefdb"/><g><path d="m354.298 348.848c-5.696-2.536-12.538-4.869-19.986-6.996-11.972-3.418-20.72-13.606-22.459-25.935-.01-.072-.02-.144-.031-.216-.638-4.493-1.155-9.001-1.554-13.519-5.431-2.535-9.12-8.021-9.12-14.296 0 12.064.851 24.112 2.545 36.056 7.136 50.289-.935 92.053-23.176 137.718l-24.517 50.34-24.517-50.34c-22.24-45.665-30.312-87.429-23.176-137.718 1.695-11.944 2.545-23.993 2.545-36.056 0 7.94-5.895 14.637-13.768 15.659-23.484 3.048-71.187 10.291-96.422 21.526-27.719 12.342-45.578 39.842-45.578 70.185v94.535c0 12.266 9.943 22.209 22.209 22.209h36.256l2.229-5.265h11.009l2.214 5.265h253.998l2.02-5.265h9.589l5.267-9.693v-78.01c.001-30.342-17.858-57.843-45.577-70.184z" fill="#756e78"/><g><g><g><g><g><g><g><g><g><g><path d="m411.338 325.071c-25.235-11.235-72.938-18.479-96.422-21.526-7.873-1.022-13.768-7.72-13.768-15.659 0 12.064.851 24.112 2.545 36.056 1.021 7.193 1.73 14.211 2.131 21.092 15.108 3.3 29.719 7.323 40.345 12.055 27.719 12.342 45.578 39.842 45.578 70.185v84.726h42.959c12.266 0 22.209-9.943 22.209-22.209v-94.535c.001-30.343-17.858-57.843-45.577-70.185z" fill="#665e66"/></g></g></g></g></g></g></g></g></g><g fill="#665e66"><path d="m129.001 512v-38.151c0-4.267-3.459-7.726-7.726-7.726s-7.726 3.459-7.726 7.726v38.151z"/><path d="m398.45 512v-38.151c0-4.267-3.459-7.726-7.726-7.726s-7.726 3.459-7.726 7.726v38.151z"/></g></g><path d="m249.047 503.931 6.953 7.855 7.565-8.261 19.731-40.513c18.785-38.571 27.093-74.158 25.861-112.325-16.171 7.421-34.162 11.559-53.12 11.559-18.987 0-37.003-4.15-53.193-11.592-1.238 38.179 7.07 73.776 25.86 112.358z" fill="#e07f84"/><path d="m231.483 461.66c-22.24-45.665-30.312-87.429-23.176-137.718 1.695-11.944 2.545-23.993 2.545-36.056l-41.138 15.784c-10.297 3.951-14.925 15.933-9.958 25.779l6.19 12.271c2.857 5.663 2.635 12.39-.587 17.853l-16.723 28.348c-4.211 7.139-3.199 16.201 2.484 22.235l104.88 101.844z" fill="#89808c"/><g><path d="m280.517 461.66c22.24-45.665 30.312-87.429 23.176-137.718-1.695-11.944-2.545-23.993-2.545-36.056l41.138 15.784c10.297 3.951 14.925 15.933 9.958 25.779l-6.19 12.271c-2.857 5.663-2.635 12.39.587 17.853l16.723 28.348c4.211 7.139 3.199 16.201-2.484 22.235l-104.88 101.844z" fill="#89808c"/></g><g><path d="m300.274 146.696v154.165c0 8.836 1.127 18.185 3.888 26.543.08.108 12.206 41.183 57 41.183 6.94 0 12.566-5.626 12.566-12.566v-209.325z" fill="#efc984"/><path d="m373.728 356.021v-209.325h-63.57v193.356c7.412 12.105 22.672 28.535 51.004 28.535h.001c6.94-.001 12.565-5.626 12.565-12.566z" fill="#e8ae4d"/></g><g><g><g><g><g><g><g><path d="m172.58 120.988h-18.155c-8.921 0-16.153 7.232-16.153 16.153v19.095c0 8.928 7.238 16.166 16.166 16.166h18.142z" fill="#f6e2bf"/></g></g></g></g></g></g></g><path d="m339.42 120.988h18.155c8.921 0 16.153 7.232 16.153 16.153v19.095c0 8.928-7.238 16.166-16.166 16.166h-18.142z" fill="#f6e2bf"/><path d="m296.629 120.988c-35.237 0-65.651-20.651-79.8-50.51-.342-.723-1.421-.479-1.421.32v2.77c0 16.963-13.871 29.973-30.834 30.132-8.975.084-16.213 7.408-16.173 16.403l.207 45.595c0 58.098 60.988 90.543 87.392 91.108 26.404-.565 87.392-33.011 87.392-91.108l.112-44.711h-46.875z" fill="#faefdb"/><g><path d="m310.158 120.988v44.712c0 47.851-41.484 78.3-70.83 87.868 6.284 2.049 12.016 3.14 16.672 3.24 26.404-.565 87.392-33.011 87.392-91.109l.112-44.711z" fill="#f6e2bf"/></g></g></g></g></svg>