<svg id="&#x421;&#x43B;&#x43E;&#x439;_1" enable-background="new 0 0 160 160" viewBox="0 0 160 160" xmlns="http://www.w3.org/2000/svg"><g fill="rgb(0,0,0)"><path d="m99.718 59.133-39-15c-1.031-.397-2.188.118-2.584 1.149s.118 2.188 1.149 2.584l4.35 1.673-10.047 10.047c-.375.375-.586.884-.586 1.414v17c0 8.445 4.388 15.879 11 20.158v6.842c0 1.104.896 2 2 2s2-.896 2-2v-4.757c2.781 1.129 5.818 1.757 9 1.757s6.219-.628 9-1.757v4.757c0 1.104.896 2 2 2s2-.896 2-2v-6.842c2.781-1.799 5.168-4.154 7-6.912v14.754c-.283 0-.562.06-.821.176l-7.042 3.169c-7.713 3.471-16.561 3.471-24.273 0l-7.042-3.169c-.26-.116-.539-.176-.822-.176-5.054 0-9.818 1.262-14 3.479v-38.479c0-1.104-.896-2-2-2s-2 .896-2 2v41.017c-7.282 5.479-12 14.19-12 23.983 0 1.104.896 2 2 2s2-.896 2-2c0-14.195 11.436-25.771 25.578-25.997l6.644 2.99c3.757 1.69 7.751 2.65 11.778 2.89v12.117c0 1.104.896 2 2 2s2-.896 2-2v-12.117c4.027-.24 8.021-1.2 11.778-2.89l6.222-2.8v25.807c0 1.104.896 2 2 2s2-.896 2-2v-58-17c0-.828-.51-1.57-1.282-1.867zm-22.718 38.867c-11.028 0-20-8.972-20-20v-16.171l10.717-10.718 29.283 11.263v15.626c0 11.028-8.972 20-20 20z"/><path d="m111 66c0 1.104.896 2 2 2s2-.896 2-2v-6c0-20.953-17.047-38-38-38-16.045 0-30.437 10.152-35.812 25.262-.37 1.041.173 2.185 1.214 2.555 1.038.37 2.184-.173 2.555-1.214 4.809-13.52 17.686-22.603 32.043-22.603 18.748 0 34 15.252 34 34z"/><path d="m115 112.015v-4.015c0-1.104-.896-2-2-2s-2 .896-2 2v28c0 1.104.896 2 2 2s2-.896 2-2v-18.745c5.061 4.867 8 11.62 8 18.745 0 1.104.896 2 2 2s2-.896 2-2c0-9.446-4.472-18.327-12-23.985z"/><path d="m32 76c.951 0 1.77-.669 1.96-1.601.954-4.685 6.004-12.568 10.425-13.437.939-.184 1.615-1.006 1.615-1.962s-.676-1.778-1.615-1.962c-4.421-.869-9.472-8.752-10.425-13.437-.19-.932-1.009-1.601-1.96-1.601s-1.77.669-1.96 1.601c-.954 4.685-6.004 12.568-10.425 13.437-.939.184-1.615 1.006-1.615 1.962s.676 1.778 1.615 1.962c4.421.869 9.472 8.752 10.425 13.437.19.932 1.009 1.601 1.96 1.601zm-7.37-17c3.009-2.173 5.636-5.726 7.37-9.201 1.734 3.476 4.361 7.028 7.37 9.201-3.009 2.173-5.636 5.726-7.37 9.201-1.734-3.475-4.361-7.028-7.37-9.201z"/><path d="m114.629 37.965c3.563.672 7.641 6.804 8.414 10.45.197.924 1.012 1.585 1.957 1.585s1.76-.661 1.957-1.585c.773-3.646 4.851-9.778 8.414-10.45.944-.178 1.629-1.003 1.629-1.965s-.685-1.787-1.629-1.965c-3.563-.672-7.641-6.804-8.414-10.45-.197-.924-1.012-1.585-1.957-1.585s-1.76.661-1.957 1.585c-.773 3.646-4.851 9.778-8.414 10.45-.944.178-1.629 1.003-1.629 1.965s.685 1.787 1.629 1.965zm10.371-8.602c1.373 2.485 3.307 4.961 5.512 6.637-2.205 1.676-4.139 4.152-5.512 6.637-1.373-2.485-3.307-4.961-5.512-6.637 2.205-1.676 4.139-4.152 5.512-6.637z"/><path d="m141.976 86.065c-.057-1.103-.988-1.951-2.1-1.895-1.103.057-1.952.997-1.895 2.1.013.242.019.485.019.73 0 7.72-6.28 14-14 14s-14-6.28-14-14 6.28-14 14-14c2.859 0 5.607.855 7.949 2.474.909.628 2.155.4 2.783-.508s.4-2.154-.508-2.782c-3.014-2.083-6.549-3.184-10.224-3.184-9.925 0-18 8.075-18 18s8.075 18 18 18 18-8.075 18-18c0-.313-.008-.625-.024-.935z"/><path d="m116.914 82.086c-.78-.781-2.048-.781-2.828 0-.781.781-.781 2.047 0 2.828l8.5 8.5c.39.39.902.586 1.414.586.489 0 .978-.178 1.363-.536l14.5-13.5c.809-.753.854-2.018.101-2.827-.752-.808-2.018-.854-2.827-.101l-13.087 12.185z"/></g></svg>