<svg version="1.1" id="Capa_1" xmlns="http://www.w3.org/2000/svg" xmlns:xlink="http://www.w3.org/1999/xlink" x="0px" y="0px" viewBox="0 0 512 512" style="enable-background:new 0 0 512 512;" xml:space="preserve">
<g>
	<path style="fill:none;stroke:#000000;stroke-width:15;stroke-linecap:round;stroke-linejoin:round;stroke-miterlimit:10;" d="&#10;&#9;&#9;M130.826,172.402v-38.065l-7.352-24.737C108.334,58.659,146.5,7.5,199.643,7.5h86.92c22.822,0,43.932,12.092,55.483,31.77h32.171&#10;&#9;&#9;c25.009,0,45.283,20.274,45.283,45.283v52.301"/>
	<path style="fill:none;stroke:#000000;stroke-width:15;stroke-linecap:round;stroke-linejoin:round;stroke-miterlimit:10;" d="&#10;&#9;&#9;M356.75,389.55h70.97c26.86,0,50.4,17.99,57.45,43.91l19.33,71.04"/>
	<path style="fill:none;stroke:#000000;stroke-width:15;stroke-linecap:round;stroke-linejoin:round;stroke-miterlimit:10;" d="&#10;&#9;&#9;M103.26,392.778c6.104-2.099,12.623-3.228,19.35-3.228h70.96"/>
	<path style="fill:none;stroke:#000000;stroke-width:15;stroke-linecap:round;stroke-linejoin:round;stroke-miterlimit:10;" d="&#10;&#9;&#9;M45.83,504.5l19.33-71.04c1.951-7.174,5.166-13.74,9.364-19.486"/>
	<path style="fill:none;stroke:#000000;stroke-width:15;stroke-linecap:round;stroke-linejoin:round;stroke-miterlimit:10;" d="&#10;&#9;&#9;M164.825,290.623c11.66,28.468,37.493,49.629,68.724,54.715l-4.252,44.212l45.866,42.347l45.866-42.347l-4.252-44.212&#10;&#9;&#9;c42.76-6.963,75.402-44.062,75.402-88.79v-90.579c0-17.501-8.997-33.774-23.819-43.08l-33.131-20.801&#10;&#9;&#9;c-47.663,38.049-107.189,59.395-177.081,66.147l0,75.05"/>
	<path style="fill:none;stroke:#000000;stroke-width:15;stroke-linecap:round;stroke-linejoin:round;stroke-miterlimit:10;" d="&#10;&#9;&#9;M118.345,183.352c6.501-9.148,17.185-15.117,29.262-15.117h10.54v71.747"/>
	<path style="fill:none;stroke:#000000;stroke-width:15;stroke-linecap:round;stroke-linejoin:round;stroke-miterlimit:10;" d="&#10;&#9;&#9;M392.179,239.982h10.54c19.812,0,35.873-16.061,35.873-35.873v0c0-19.812-16.061-35.873-35.873-35.873h-10.54V239.982z"/>
	<path style="fill:none;stroke:#000000;stroke-width:15;stroke-linecap:round;stroke-linejoin:round;stroke-miterlimit:10;" d="&#10;&#9;&#9;M275.163,431.897l-38.107,32.728c-6.139,5.272-15.656,2.752-18.38-4.868l-25.104-70.208l4.493-11.977&#10;&#9;&#9;c1.604-4.275,5.691-7.107,10.257-7.107h22.81l-1.835,19.084L275.163,431.897z"/>
	<path style="fill:none;stroke:#000000;stroke-width:15;stroke-linecap:round;stroke-linejoin:round;stroke-miterlimit:10;" d="&#10;&#9;&#9;M275.163,431.897l38.107,32.728c6.139,5.272,15.656,2.752,18.38-4.868l25.104-70.208l-4.493-11.977&#10;&#9;&#9;c-1.604-4.275-5.691-7.107-10.257-7.107h-22.81l1.835,19.084L275.163,431.897z"/>
	
		<polyline style="fill:none;stroke:#000000;stroke-width:15;stroke-linecap:round;stroke-linejoin:round;stroke-miterlimit:10;" points="&#10;&#9;&#9;148.255,504.5 148.255,389.55 193.572,389.55 193.572,504.5 &#9;"/>
	
		<polyline style="fill:none;stroke:#000000;stroke-width:15;stroke-linecap:round;stroke-linejoin:round;stroke-miterlimit:10;" points="&#10;&#9;&#9;356.754,504.5 356.754,389.55 402.07,389.55 402.07,504.5 &#9;"/>
	
		<line style="fill:none;stroke:#000000;stroke-width:15;stroke-linecap:round;stroke-linejoin:round;stroke-miterlimit:10;" x1="254.449" y1="277.742" x2="293.451" y2="277.742"/>
	
		<line style="fill:none;stroke:#000000;stroke-width:15;stroke-linecap:round;stroke-linejoin:round;stroke-miterlimit:10;" x1="273.95" y1="232.935" x2="273.95" y2="206.841"/>
	
		<ellipse style="fill:none;stroke:#000000;stroke-width:15;stroke-linecap:round;stroke-linejoin:round;stroke-miterlimit:10;" cx="216.821" cy="216.33" rx="31.941" ry="24.038"/>
	
		<line style="fill:none;stroke:#000000;stroke-width:15;stroke-linecap:round;stroke-linejoin:round;stroke-miterlimit:10;" x1="184.88" y1="216.33" x2="156.313" y2="216.33"/>
	<path style="fill:none;stroke:#000000;stroke-width:15;stroke-linecap:round;stroke-linejoin:round;stroke-miterlimit:10;" d="&#10;&#9;&#9;M248.763,216.33c0,0,5.852-9.256,25.187-9.256"/>
	
		<ellipse style="fill:none;stroke:#000000;stroke-width:15;stroke-linecap:round;stroke-linejoin:round;stroke-miterlimit:10;" cx="331.078" cy="216.33" rx="31.941" ry="24.038"/>
	
		<line style="fill:none;stroke:#000000;stroke-width:15;stroke-linecap:round;stroke-linejoin:round;stroke-miterlimit:10;" x1="363.019" y1="216.33" x2="391.586" y2="216.33"/>
	<path style="fill:none;stroke:#000000;stroke-width:15;stroke-linecap:round;stroke-linejoin:round;stroke-miterlimit:10;" d="&#10;&#9;&#9;M299.137,216.33c0,0-5.852-9.256-25.187-9.256"/>
	
		<line style="fill:none;stroke:#000000;stroke-width:15;stroke-linecap:round;stroke-linejoin:round;stroke-miterlimit:10;" x1="11.704" y1="97.087" x2="11.704" y2="7.5"/>
	<g>
		
			<polygon style="fill:none;stroke:#000000;stroke-width:15;stroke-linecap:round;stroke-linejoin:round;stroke-miterlimit:10;" points="&#10;&#9;&#9;&#9;152.688,237.825 132.639,257.874 100.081,245.365 140.179,205.267 &#9;&#9;"/>
		<path style="fill:none;stroke:#000000;stroke-width:15;stroke-linecap:round;stroke-linejoin:round;stroke-miterlimit:10;" d="&#10;&#9;&#9;&#9;M36.361,181.645l-9.175-9.175c-7.107-7.107-7.107-18.63,0-25.737l0,0L9.275,114.147C6.2,108.553,7.19,101.6,11.704,97.087l0,0&#10;&#9;&#9;&#9;c5.604-5.604,14.691-5.604,20.295,0l108.181,108.181l-40.098,40.098l-41.257-41.257"/>
		<path style="fill:none;stroke:#000000;stroke-width:15;stroke-linecap:round;stroke-linejoin:round;stroke-miterlimit:10;" d="&#10;&#9;&#9;&#9;M152.688,237.825l-20.049,20.049l45.22,45.22c5.536,5.536,14.512,5.536,20.049,0l0,0c5.536-5.536,5.536-14.512,0-20.049&#10;&#9;&#9;&#9;L152.688,237.825z"/>
	</g>
	<path style="fill:none;stroke:#000000;stroke-width:15;stroke-linecap:round;stroke-linejoin:round;stroke-miterlimit:10;" d="&#10;&#9;&#9;M293.215,89.951c0,0-49.276,32.048-117.695,31.775"/>
	
		<line style="fill:none;stroke:#000000;stroke-width:15;stroke-linecap:round;stroke-linejoin:round;stroke-miterlimit:10;" x1="275.163" y1="431.897" x2="275.163" y2="504.5"/>
</g>
<g>
</g>
<g>
</g>
<g>
</g>
<g>
</g>
<g>
</g>
<g>
</g>
<g>
</g>
<g>
</g>
<g>
</g>
<g>
</g>
<g>
</g>
<g>
</g>
<g>
</g>
<g>
</g>
<g>
</g>
</svg>