<svg id="Layer_1" enable-background="new 0 0 75 75" viewBox="0 0 75 75" xmlns="http://www.w3.org/2000/svg"><g id="Active_Listening"><path d="m66.9644165 45.3925781c-.3046875-.2792969-.7773438-.2617188-1.0600586.0410156-.28125.3037109-.2631836.7783203.0405273 1.0605469.890625.8242188 1.4257812 1.9921875 1.4682617 3.1777344v16.4785156c0 .4140625.3359375.75.75.75s.75-.3359375.75-.75l-.0004883-16.5048828c-.0571288-1.6083984-.7670898-3.1582031-1.9482421-4.2529297z"/><path d="m63.6382408 63.8544922c.4140663 0 .7500038-.3359375.7500038-.75v-11.4462891c0-2.2744141-1.6865273-4.1240234-3.7592812-4.1240234s-3.7592773 1.8496094-3.7592773 4.1240234v11.4462891c0 .4140625.3359375.75.75.75s.75-.3359375.75-.75v-11.4462891c0-1.4472656 1.0136719-2.6240234 2.2592773-2.6240234s2.2592773 1.1767578 2.2592773 2.6240234v11.4462891c.0000001.4140625.3359376.75.7500001.75z"/><path d="m66.1646118 34.5771484c.1903381-4.0342789-3.0484352-7.3837891-7.0546913-7.3837891-3.7416992 0-6.824707 2.9443359-7.0200195 6.7080078l-.0932617 2.1230469c-.2026787 4.0368004 3.0244255 7.3896484 7.0336914 7.3896484 3.7287865 0 6.8514519-2.9252052 7.0293007-6.6982422zm-7.0546913-5.883789c.0187111.0007591.2727776.0107422.2915039.0107422 3.0473633.1445312 5.4091835 2.7470703 5.2651405 5.8007812-.1374969 1.8988113-.0041199 2.3010902-.3447266 3.449707-1.229496-.8677368-2.3444252-2.6691284-3.2524452-5.2963867-.4312439-1.2460403-1.9343491-1.8081684-3.0224609-1.0380859-1.4003296.998291-3.1887817 1.100647-4.2208862 1.05896.6820679-2.3114625 2.7891235-3.9857178 5.2838745-3.9857178zm-.3476562 13.2148437c-3.067627-.1535339-5.4211998-2.7542877-5.2675781-5.8105469 0-.0019531 0-.0039062.0004883-.0048828l.0846558-1.923645c1.2269287.0728149 3.4917603-.0119629 5.3347778-1.3253784.2574997-.1813393.628273-.0087166.7373047.3056641 1.0720825 3.1009521 2.4259644 5.175415 4.0310669 6.1895752-1.1573755 1.8093414-3.031025 2.654396-4.9207154 2.5692138z"/><path d="m62.270565 25.9472656c-.2299805.34375-.1376953.8095703.206543 1.0400391.3427734.2304688.809082.1386719 1.0405273-.2060547 1.1415062-1.7037468 3.3423576-1.6948776 4.5166054-.3818359 1.279007 1.4308014.747261 3.6985226-.847168 4.4160156-.3774414.1708984-.5449219.6152344-.3745117.9921875.1695328.3746948.6102219.5458031.9926758.375 2.4854202-1.1259918 3.3250046-4.5719414 1.347168-6.7832031-1.8037949-2.0166207-5.17482-2.0002594-6.8818398.5478515z"/><path d="m56.3735924 46.4453125c.2768555-.3085938.2519531-.7822266-.0561523-1.0595703-.3066406-.2763672-.78125-.2509766-1.059082.0556641l-2.4609375 2.7373047c-2.105381 2.3420143-2.6052933 5.6115646-1.0864258 8.4306641l2.3046875 9.7138672c.0820312.3447266.3896484.5771484.7294922.5771484.0571289 0 .1152344-.0068359.1738281-.0205078.402832-.0957031.6518555-.5.5566406-.9023438-2.4821587-10.4187279-2.3072014-9.8330231-2.402832-10.0048828-1.2413788-2.2257462-.9005165-4.8558044.8398438-6.7910156z"/><path d="m7.7490807 65.4677734c.3745117 0 .6982422-.2802734.7436523-.6611328l1.2480469-10.5029297c.2895508-1.1738281 1.0698242-2.1699219 2.1401367-2.7324219l5.7729492-3.0322266c.3666992-.1923828.5078125-.6464844.3154297-1.0126953-.1928711-.3681641-.6469727-.5097656-1.0126953-.3154297l-5.7734375 3.0322266c-1.449707.7626953-2.5063477 2.1113281-2.9150391 3.7919922l-1.2646484 10.59375c-.0530191.4420014.2910094.8388672.7456055.8388672z"/><path d="m30.6719322 47.5263672c-.1923828.3662109-.0512695.8203125.3154297 1.0126953l5.7724609 3.0322266c1.0708008.5625 1.8505859 1.5585938 2.1240234 2.6416016l1.2646484 10.59375c.046093.3865738.3871803.69944.8334961.65625.4111328-.0498047.7050781-.4228516.6557617-.8339844l-1.28125-10.6845703c-.3920898-1.5898438-1.4487305-2.9384766-2.8989258-3.7011719l-5.7729492-3.0322266c-.3662108-.1943359-.8203124-.0527344-1.0126952.3154297z"/><path d="m17.1406822 34.7285156c.0064087 0 .0130615-.0023193.0195312-.0025024.0050659.0001221.0095825.0025024.0146484.0025024.0537109 0 .1083984-.0058594.1625977-.0175781.0178833-.0039673.0308838-.0161743.0481567-.0213623 1.6898804-.4432373 7.0194092-1.9190063 9.3453979-3.4835205.9245186 1.6175346 2.9821548 3.1351128 4.0627441 3.3104858.3473835.0573845.6762486-.0972176.8147583-.4656982.0040894-.0108643.0129395-.0182495.0165405-.0293579.000061-.0001221.000061-.0003052.0001221-.0004272.0001831-.0006104.0006714-.0009155.0008545-.0015259.0003052-.0009155 0-.0018311.0003052-.0027466.7908325-2.4412842.3953857-4.4668579-.0755005-5.7355347-.2329102-.6289062-.6293945-1.1796875-1.1474609-1.5917969-.84375-.671875-2.0722656-1.9169922-2.0849609-1.9296875-.0258789-.0263672-.0541992-.0507812-.0839844-.0732422-3.1948242-2.4003906-7.237793-.0800781-8.8286133 1.0292969-.1982422.1386719-.4008789.234375-.6030273.2832031-3.5906982.8859863-2.6275635 6.7738037-2.4003296 7.9387817-.026451.4772759.3451005.7907105.7382203.7907105zm2.0205078-7.2724609c.3818359-.09375.7529297-.265625 1.1030273-.5097656 1.0258789-.7158203 4.5507812-2.8974609 7.0273438-1.0917969 2.2402554 2.2544041 2.5225658 2.0556374 2.8525391 2.9472656.3358765.9044189.6207886 2.2781982.2689209 3.9442749-1.1090088-.6160278-2.0953979-1.7075806-2.4364014-2.3895874-.3591576-.718317-1.288126-.9602661-1.9711914-.4726562-1.4998779 1.0726318-5.0963745 2.2885742-8.236084 3.1494751-.2718506-1.8601075-.3742675-5.1415406 1.3918457-5.5772095z"/><path d="m18.176815 40.1621094c.3095703 2.9775391 2.7602539 6.2246094 5.8876953 6.2246094 3.1298828 0 5.5839844-3.2470703 5.8945312-6.2246094 1.7585793-.5015678 2.4019279-2.5845032 1.4023438-3.9794922-.2416992-.3378906-.7104492-.4130859-1.046875-.1728516-.3364258.2412109-.4140625.7089844-.1728516 1.0458984.4182243.5858383.1331882 1.4920197-.6450195 1.6767578-.5654297.1367188-.9746094.5996094-1.0180664 1.1523438-.1860352 2.3613281-2.1132812 5.0019531-4.4140625 5.0019531-2.2978516 0-4.222168-2.640625-4.4072266-5.0019531-.043457-.5537109-.4526367-1.0166016-1.0200195-1.1523438-.7899723-.1882744-1.0809479-1.1268616-.6040039-1.7304688.2568359-.3242188.2016602-.7958984-.1230469-1.0527344-.324707-.2578125-.796875-.203125-1.0537109.1230469-1.124259 1.4222184-.4653415 3.5819017 1.3203125 4.0898439z"/><path d="m25.2061119 52.2617188 1.7939453-2.2939453c.6106853-.7797356.0531311-1.9179688-.9335938-1.9179688h-3.5454102c-.9778728 0-1.539547 1.1226501-.9428711 1.90625l1.7509766 2.2958984c.472086.6157646 1.3996907.6207466 1.8769532.0097657zm.2163086-2.7119141-1.1479492 1.4677734-1.1196289-1.4677734z"/><path d="m21.6441002 53.8447266-2.2163086 10.9160156c-.0825195.40625.1796875.8017578.5854492.8847656.4262085.0819626.8049202-.1955795.8842773-.5859375l2.2163086-10.9160156c.0825195-.40625-.1796875-.8017578-.5854492-.8847656-.4086914-.0810547-.8017578.1796875-.8842773.5859375z"/><path d="m27.7441978 65.0595703c.0722656.3554688.3847656.6005859.7338867.6005859.4797745 0 .8294296-.4386673.7358398-.8994141l-2.2167969-10.9160156c-.0825195-.40625-.4804688-.6660156-.8842773-.5859375-.4057617.0830078-.6679688.4785156-.5854492.8847656z"/><path d="m48.6963463 21.5917969c1.3110352-1.4521484 2.0244141-3.2392578 2.0244141-5.1044922 0-4.625-4.40625-8.3876953-9.8217773-8.3876953-5.4091797 0-9.8100586 3.7626953-9.8100586 8.3876953 0 5.436636 5.9223595 9.3204536 11.8833008 8.1992188 7.9883537.9743595 7.7500267.9541016 7.8525391.9541016.6580315 0 .9979973-.7937603.5405273-1.2695312zm-5.8984375 1.6005859c-5 1.0032368-10.2089844-2.1334686-10.2089844-6.7050781 0-3.7978516 3.7280273-6.8876953 8.3100586-6.8876953 4.5888672 0 8.3217773 3.0898438 8.3217773 6.8876953 0 1.6835938-.7392578 3.2998047-2.0810547 4.5498047-.3057938.2844582-.3196678.7672882-.0297852 1.0683594l1.7143555 1.7851562c-6.2170257-.7577934-5.8482093-.7342339-6.0263671-.6982422z"/><path d="m36.2523155 15.3585205c-.5963135 0-1.0797729.4833984-1.0797729 1.0797119s.4834595 1.0797729 1.0797729 1.0797729 1.0797729-.4834595 1.0797729-1.0797729-.4834594-1.0797119-1.0797729-1.0797119z"/><path d="m40.9193077 15.3585205c-.5963135 0-1.0797119.4833984-1.0797119 1.0797119s.4833984 1.0797729 1.0797119 1.0797729c.5963745 0 1.0797729-.4834595 1.0797729-1.0797729s-.4833984-1.0797119-1.0797729-1.0797119z"/><path d="m45.5863609 15.3585205c-.5963135 0-1.0797729.4833984-1.0797729 1.0797119s.4834595 1.0797729 1.0797729 1.0797729 1.0797729-.4834595 1.0797729-1.0797729-.4834594-1.0797119-1.0797729-1.0797119z"/><path d="m43.6865807 35.3779297c-.2841797-.3007812-.7583008-.3154297-1.0600586-.03125-.1064453.1005859-1.0415039 1.0214844-1.0610352 2.3544922-.012207.8427734.3393555 1.6289062 1.0454102 2.3349609.2929611.2929611.7675705.2929764 1.0605469 0 .2929688-.2929688.2929688-.7675781 0-1.0605469-.4111328-.4111328-.609375-.8173828-.605957-1.2431641.0048828-.7109375.5771484-1.28125.59375-1.2978516.2978515-.2841796.3105468-.7568358.0273437-1.0566405z"/><path d="m40.3745689 32.8662109c-.1074219.0830078-2.6342773 2.0556641-2.6738281 4.8691406-.0239258 1.7197266.8701172 3.3291016 2.6572266 4.7841797.320118.2605858.7933578.2130394 1.0551758-.1083984.2617188-.3212891.2128906-.7939453-.1079102-1.0556641-1.4111328-1.1474609-2.1191406-2.3564453-2.1044922-3.5908203.0239258-2.0839844 2.0683594-3.6943359 2.0893555-3.7099609.3266602-.2539062.387207-.7246094.1342773-1.0517578-.2519531-.3271485-.7216797-.3886719-1.0498047-.1367188z"/><path d="m36.8857994 31.4462891c-.0581055.0615234-5.7773438 6.1455078-.0146484 12.4892578.2788773.3074074.7537117.3295898 1.0595703.0507812.3066406-.2783203.3291016-.7519531.0507812-1.0585938-4.8100586-5.2958984-.2119141-10.234375-.0136757-10.4423828.2856483-.2988281.2753944-.7734375-.0229454-1.0595703-.2978515-.2861328-.7709961-.2763671-1.059082.0205079z"/><path d="m6.0147057 35.3466797c-.3012695-.2841797-.7763672-.2695312-1.0600586.03125-.2841797.3007812-.2705078.7763672.0307617 1.0605469.0058594.0048828.5805664.578125.5908203 1.2851562.0063477.4277344-.1923828.8378906-.6064453 1.2519531-.4748325.4748306-.1306901 1.2802734.5302734 1.2802734.1918945 0 .3837891-.0732422.5302734-.2197266.7060547-.7060547 1.0581055-1.4921875 1.0454102-2.3349609-.019043-1.3330077-.9545898-2.2539062-1.0610351-2.3544921z"/><path d="m7.3359947 41.3554688c-.5470619.4456291-.2284879 1.3320312.4741211 1.3320312.1665039 0 .3339844-.0546875.4731445-.1679688 1.7871094-1.4550781 2.6811523-3.0644531 2.6572266-4.7841797-.0395508-2.8134766-2.5664062-4.7861328-2.6738281-4.8691406-.3291016-.2519531-.7998047-.1914062-1.0517578.1376953-.2524414.328125-.1904297.7998047.1376953 1.0517578.0205078.015625 2.0585938 1.6054688 2.0878906 3.7011719.0175781 1.2373047-.6904297 2.4482422-2.1044922 3.5986329z"/><path d="m10.6963463 31.4257812c-.2983398.2861328-.3085938.7607422-.0229492 1.0595703.1982422.2080078 4.7963867 5.1464844-.0136719 10.4423828-.2783203.3066406-.2558594.7802734.0507812 1.0585938.3055477.2785263.7803879.2569656 1.0595703-.0507812 5.7626953-6.34375.043457-12.4277344-.0146484-12.4892578-.2871094-.296875-.7602539-.3066407-1.059082-.0205079z"/></g></svg>