<?xml version="1.0" encoding="UTF-8"?>
<!-- Generator: Adobe Illustrator 24.3.0, SVG Export Plug-In . SVG Version: 6.00 Build 0)  -->
<svg xmlns="http://www.w3.org/2000/svg" xmlns:xlink="http://www.w3.org/1999/xlink" version="1.1" id="Capa_1" x="0px" y="0px" viewBox="0 0 496.635 496.635" style="enable-background:new 0 0 496.635 496.635;" xml:space="preserve" width="512" height="512">
<g>
	<g>
		<path d="M423.35,19.651h-78.295c-0.599,0-1.157,0.154-1.695,0.343c-0.538-0.189-1.091-0.343-1.695-0.343h-56.576l-23.747-18.56    C260.442,0.384,259.331,0,258.189,0h-19.743c-1.142,0-2.253,0.384-3.154,1.085l-23.747,18.56H154.97    c-0.599,0-1.157,0.154-1.695,0.343c-0.538-0.189-1.091-0.343-1.695-0.343H73.285c-9.257,0-16.788,7.532-16.788,16.788v443.412    c0,9.257,7.532,16.788,16.788,16.788H423.35c9.257,0,16.788-7.532,16.788-16.788V36.439    C440.138,27.182,432.607,19.651,423.35,19.651L423.35,19.651z M160.09,29.891h53.222c1.142,0,2.253-0.384,3.154-1.085    l23.747-18.565h16.215l23.747,18.56c0.901,0.707,2.012,1.085,3.154,1.085h53.228v13.097H160.09L160.09,29.891z M109.489,29.891    h40.361v18.217c0,2.826,2.294,5.12,5.12,5.12h77.123v153.759H109.489V29.891z M429.898,479.852c0,3.615-2.939,6.548-6.548,6.548    H73.285c-3.61,0-6.548-2.939-6.548-6.548V36.439c0-3.61,2.939-6.548,6.548-6.548h25.964v182.216c0,2.826,2.294,5.12,5.12,5.12    h132.844c2.826,0,5.12-2.294,5.12-5.12V53.228h99.338c2.826,0,5.12-2.294,5.12-5.12V29.891h76.559    c3.615,0,6.548,2.939,6.548,6.548V479.852z"/>
		<path d="M219.256,122.127h-31.232V90.895c0-2.826-2.294-5.12-5.12-5.12h-24.233c-2.826,0-5.12,2.294-5.12,5.12v31.232h-31.232    c-2.826,0-5.12,2.294-5.12,5.12v24.233c0,2.826,2.294,5.12,5.12,5.12h31.232v31.232c0,2.826,2.294,5.12,5.12,5.12h24.233    c2.826,0,5.12-2.294,5.12-5.12V156.6h31.232c2.826,0,5.12-2.294,5.12-5.12v-24.233    C224.376,124.416,222.083,122.127,219.256,122.127L219.256,122.127z M214.136,146.36h-31.232c-2.826,0-5.12,2.294-5.12,5.12    v31.232h-13.993V151.48c0-2.826-2.294-5.12-5.12-5.12h-31.232v-13.993h31.232c2.826,0,5.12-2.294,5.12-5.12V96.015h13.993v31.232    c0,2.826,2.294,5.12,5.12,5.12h31.232V146.36z"/>
		<path d="M392.266,291.113H182.228c-2.826,0-5.12,2.294-5.12,5.12s2.294,5.12,5.12,5.12h210.038c2.826,0,5.12-2.294,5.12-5.12    S395.092,291.113,392.266,291.113z"/>
		<path d="M392.266,361.124H182.228c-2.826,0-5.12,2.294-5.12,5.12c0,2.826,2.294,5.12,5.12,5.12h210.038    c2.826,0,5.12-2.294,5.12-5.12C397.386,363.418,395.092,361.124,392.266,361.124z"/>
		<path d="M392.266,431.14H182.228c-2.826,0-5.12,2.294-5.12,5.12c0,2.826,2.294,5.12,5.12,5.12h210.038    c2.826,0,5.12-2.294,5.12-5.12C397.386,433.434,395.092,431.14,392.266,431.14z"/>
		<path d="M128.689,266.793c-16.23,0-29.44,13.21-29.44,29.44c0,16.23,13.21,29.44,29.44,29.44c16.236,0,29.44-13.21,29.44-29.44    C158.129,280.003,144.924,266.793,128.689,266.793z M128.689,315.433c-10.588,0-19.2-8.612-19.2-19.2s8.612-19.2,19.2-19.2    s19.2,8.612,19.2,19.2S139.277,315.433,128.689,315.433z"/>
		<path d="M128.689,337.608c-16.23,0-29.44,13.21-29.44,29.44c0,16.23,13.21,29.44,29.44,29.44c16.236,0,29.44-13.21,29.44-29.44    C158.129,350.817,144.924,337.608,128.689,337.608z M128.689,386.248c-10.588,0-19.2-8.612-19.2-19.2s8.612-19.2,19.2-19.2    s19.2,8.612,19.2,19.2S139.277,386.248,128.689,386.248z"/>
		<path d="M128.689,406.82c-16.23,0-29.44,13.21-29.44,29.44c0,16.23,13.21,29.44,29.44,29.44c16.236,0,29.44-13.21,29.44-29.44    C158.129,420.029,144.924,406.82,128.689,406.82z M128.689,455.46c-10.588,0-19.2-8.612-19.2-19.2s8.612-19.2,19.2-19.2    s19.2,8.612,19.2,19.2S139.277,455.46,128.689,455.46z"/>
		<path d="M288.484,180.209v31.898c0,2.826,2.294,5.12,5.12,5.12s5.12-2.294,5.12-5.12v-31.898c0-2.826-2.294-5.12-5.12-5.12    S288.484,177.382,288.484,180.209z"/>
		<path d="M269.816,217.226c2.826,0,5.12-2.294,5.12-5.12v-42.542c0-12.488,9.866-22.646,21.996-22.646h64.707    c12.129,0,21.995,10.158,21.995,22.646v42.542c0,2.826,2.294,5.12,5.12,5.12c2.826,0,5.12-2.294,5.12-5.12v-42.542    c0-18.135-14.459-32.886-32.236-32.886h-14.479c9.774-6.026,16.323-16.799,16.323-29.102c0-18.857-15.34-34.196-34.197-34.196    c-18.857,0-34.196,15.34-34.196,34.196c0,12.298,6.548,23.071,16.323,29.102h-14.479c-17.777,0-32.236,14.751-32.236,32.886    v42.542C264.696,214.932,266.99,217.226,269.816,217.226L269.816,217.226z M329.285,83.62c13.21,0,23.956,10.747,23.956,23.956    c0,13.215-10.747,23.962-23.956,23.962c-13.21,0-23.956-10.747-23.956-23.962C305.329,94.367,316.076,83.62,329.285,83.62z"/>
		<path d="M359.841,180.209v31.898c0,2.826,2.294,5.12,5.12,5.12c2.826,0,5.12-2.294,5.12-5.12v-31.898    c0-2.826-2.294-5.12-5.12-5.12C362.135,175.089,359.841,177.382,359.841,180.209z"/>
	</g>
</g>















</svg>
